<?xml version="1.0" encoding="utf-8"?>
<!-- Generator: Adobe Illustrator 22.0.1, SVG Export Plug-In . SVG Version: 6.00 Build 0)  -->
<svg version="1.1" id="Ebene_1" xmlns="http://www.w3.org/2000/svg" xmlns:xlink="http://www.w3.org/1999/xlink" x="0px" y="0px"
	 viewBox="0 0 200 200" style="enable-background:new 0 0 200 200;" xml:space="preserve">
<style type="text/css">
	.st0{fill:#0A0A0A;}
	.st1{fill:none;stroke:#ffffff;stroke-width:7;stroke-miterlimit:10;}
	.st2{fill:none;stroke:#ffffff;stroke-width:10;stroke-miterlimit:10;}
	.st3{fill:#ffffff;}
</style>
<path class="st0" d="M100,200C44.8,200,0,155.2,0,100S44.8,0,100,0s100,44.8,100,100C199.9,155.2,155.2,199.9,100,200z M100,7.7
	C49,7.7,7.7,49,7.7,100S49,192.3,100,192.3s92.3-41.3,92.3-92.3l0,0C192.3,49,151,7.7,100,7.7z"/>
<g id="Instagram">
	<g>
		<path class="st1" d="M74,40h52c17.8,0,32.3,14.5,32.3,32.3v55.5c0,17.8-14.5,32.3-32.3,32.3H74c-17.8,0-32.3-14.5-32.3-32.3V72.3
			C41.8,54.4,56.2,40,74,40z"/>
		<path class="st2" d="M128.6,99.8c-0.3,15.8-12.8,28.6-28.6,28.6s-28.6-12.8-28.6-28.6l0,0c0-15.8,12.8-29,28.6-28.6
			C119.2,71.7,128.9,84,128.6,99.8z"/>
		<circle class="st3" cx="135.2" cy="64.4" r="8"/>
	</g>
</g>
</svg>
