<?xml version="1.0" encoding="utf-8"?>
<!-- Generator: Adobe Illustrator 22.0.1, SVG Export Plug-In . SVG Version: 6.00 Build 0)  -->
<svg version="1.1" id="Ebene_1" xmlns="http://www.w3.org/2000/svg" xmlns:xlink="http://www.w3.org/1999/xlink" x="0px" y="0px"
	 viewBox="0 0 500 300" style="enable-background:new 0 0 500 300;" xml:space="preserve">
<style type="text/css">
	.st0{fill:#154098;}
	.st1{fill:#FFFFFF;}
</style>
<g>
	<path class="st0" d="M358.1,176.7H143.4c-15.3,0-27.7-12.4-27.7-27.7l0,0c0-15.3,12.4-27.7,27.7-27.7h214.7
		c15.3,0,27.7,12.4,27.7,27.7l0,0C385.8,164.3,373.4,176.7,358.1,176.7z"/>
	<g>
		<path class="st1" d="M134.8,137.9h8.8c2.8,0,4.9,0.6,6.3,1.8c1.4,1.2,2.1,2.9,2.1,5c0,1.3-0.4,2.4-1.1,3.4s-1.7,1.6-3,1.9l0,0
			c1.4,0.3,2.6,0.9,3.5,2c0.9,1,1.3,2.3,1.3,3.6c0,2.1-0.8,3.8-2.4,5c-1.6,1.2-3.8,1.9-6.7,1.9h-8.7v-24.6L134.8,137.9L134.8,137.9z
			 M143.6,148.7c1.8,0,3.1-0.3,3.9-1c0.9-0.7,1.3-1.7,1.3-3c0-2.7-1.7-4-5.2-4h-5.8v8H143.6z M144.2,159.7c1.7,0,3-0.4,3.9-1.1
			s1.3-1.7,1.3-3c0-1.3-0.4-2.3-1.3-3c-0.9-0.7-2.2-1.1-3.9-1.1h-6.5v8.2H144.2z"/>
		<path class="st1" d="M161.4,157.5c0,0.9,0.1,1.6,0.4,2c0.3,0.4,0.8,0.5,1.6,0.5c0.5,0,1,0,1.4-0.1s0.8-0.2,1.4-0.4l-0.5,2.9
			c-0.8,0.3-1.7,0.5-2.8,0.5c-1.5,0-2.6-0.4-3.4-1.2c-0.7-0.8-1.1-2.1-1.1-3.8v-22.6h3L161.4,157.5L161.4,157.5z"/>
		<path class="st1" d="M186.8,160.1l-0.2,2.3c-0.7,0.2-1.4,0.4-2.2,0.4c-1,0-1.7-0.2-2.3-0.6s-0.9-1.1-1.1-2.1
			c-0.6,0.9-1.4,1.5-2.5,2s-2.3,0.7-3.5,0.7c-1.8,0-3.4-0.4-4.6-1.3c-1.2-0.9-1.8-2.1-1.8-3.7c0-1.4,0.6-2.6,1.9-3.7
			c1.2-1,3-1.7,5.4-2.1l5-0.8v-1c0-1.2-0.4-2.2-1.2-3c-0.8-0.7-1.8-1.1-3.2-1.1c-1.2,0-2.3,0.3-3.2,0.9c-0.9,0.6-1.6,1.5-2.1,2.6
			L169,148c0.5-1.4,1.4-2.5,2.8-3.3c1.4-0.8,2.9-1.2,4.8-1.2c2.2,0,4,0.5,5.3,1.6s2,2.6,2,4.7v9.2c0,0.4,0.1,0.8,0.3,1
			s0.6,0.3,1.1,0.3C185.8,160.3,186.3,160.3,186.8,160.1z M179.2,159.1c1.1-0.7,1.7-1.7,1.7-2.9v-2.6l-4.2,0.8
			c-1.7,0.3-2.9,0.7-3.7,1.3s-1.2,1.3-1.2,2.1c0,0.8,0.3,1.4,0.9,1.8c0.6,0.4,1.4,0.6,2.5,0.6C176.7,160.3,178,159.9,179.2,159.1z"
			/>
		<path class="st1" d="M203.7,144.8c1.3,0.9,2.3,2.1,3,3.7l-2.8,1.3c-0.8-2.5-2.4-3.7-5-3.7c-1.9,0-3.3,0.6-4.4,1.9
			c-1.1,1.3-1.6,3-1.6,5.2s0.5,3.9,1.6,5.2s2.5,1.9,4.4,1.9c1.4,0,2.6-0.3,3.5-1s1.5-1.6,1.7-2.9l2.8,1c-0.6,1.7-1.6,3.1-3,4
			c-1.3,1-3,1.4-4.9,1.4c-2.8,0-5-0.9-6.6-2.6s-2.4-4.1-2.4-7.1s0.8-5.4,2.4-7.1c1.6-1.7,3.8-2.6,6.6-2.6
			C200.8,143.5,202.4,143.9,203.7,144.8z"/>
		<path class="st1" d="M219.1,153.3l-4,4v5.3h-3v-27.2h3v18.2l9.7-9.7h3.7l-7.3,7.3l7.7,11.4h-3.6L219.1,153.3z"/>
		<path class="st1" d="M248.7,146.1c1.5,1.7,2.3,4.1,2.3,7.1s-0.8,5.4-2.3,7.1s-3.6,2.6-6.2,2.6c-1.4,0-2.7-0.3-3.9-1
			c-1.1-0.7-2-1.5-2.5-2.6l-0.2,3.2h-2.6v-27.2h3v11.5c0.6-1,1.4-1.8,2.5-2.4c1.1-0.6,2.3-0.9,3.7-0.9
			C245.1,143.5,247.1,144.3,248.7,146.1z M246.4,158.3c1-1.3,1.6-3,1.6-5.2s-0.5-3.9-1.6-5.2c-1-1.3-2.5-1.9-4.3-1.9
			s-3.2,0.6-4.3,1.9c-1.1,1.2-1.6,2.9-1.6,5v0.4c0,2.1,0.5,3.8,1.6,5s2.5,1.9,4.3,1.9C243.9,160.3,245.4,159.6,246.4,158.3z"/>
		<path class="st1" d="M271.3,146c1.6,1.7,2.4,4.1,2.4,7.1s-0.8,5.4-2.4,7.1s-3.8,2.6-6.6,2.6c-2.8,0-5-0.9-6.6-2.6
			s-2.4-4.1-2.4-7.1s0.8-5.4,2.4-7.1c1.6-1.7,3.8-2.6,6.6-2.6C267.5,143.5,269.7,144.3,271.3,146z M260.2,147.9
			c-1.1,1.3-1.6,3-1.6,5.2s0.5,4,1.6,5.2c1.1,1.3,2.5,1.9,4.4,1.9s3.4-0.6,4.4-1.9c1.1-1.3,1.6-3,1.6-5.2s-0.5-4-1.6-5.2
			c-1.1-1.3-2.6-1.9-4.4-1.9C262.8,146,261.3,146.7,260.2,147.9z"/>
		<path class="st1" d="M290.2,162.5l-5.1-7.2l-5.3,7.2h-3.5l7.2-9.4l-6.7-9.3h3.7l4.9,6.9l4.8-6.9h3.5L287,153l6.9,9.5H290.2z"/>
	</g>
	<g>
		<rect x="324.8" y="132.4" class="st1" width="1" height="33.3"/>
	</g>
	<polygon class="st1" points="365.9,141.6 363.1,138.8 355.6,146.2 348.2,138.8 345.4,141.6 352.8,149.1 345.4,156.5 348.2,159.3 
		355.6,151.9 363.1,159.3 365.9,156.5 358.5,149.1 	"/>
</g>
</svg>
