<?xml version="1.0" encoding="utf-8"?>
<!-- Generator: Adobe Illustrator 22.0.1, SVG Export Plug-In . SVG Version: 6.00 Build 0)  -->
<svg version="1.1" id="Ebene_1" xmlns="http://www.w3.org/2000/svg" xmlns:xlink="http://www.w3.org/1999/xlink" x="0px" y="0px"
	 viewBox="0 0 300 300" style="enable-background:new 0 0 300 300;" xml:space="preserve">
<style type="text/css">
	.st0{fill:#0A0A0A;}
</style>
<g id="icon_x5F_mit_x5F_schrift">
	<g id="oben">
		<path class="st0" d="M149.9,95.9c-2.1,0-3.6,0.8-4.8,2.4c-1.1,1.6-1.7,3.8-1.7,6.7v0.7c0,3,0.6,5.2,1.7,6.8
			c1.1,1.5,2.7,2.3,4.7,2.3c2.1,0,3.7-0.8,4.9-2.3c1.1-1.5,1.7-3.9,1.7-7.1s-0.6-5.6-1.7-7.1C153.6,96.7,152,95.9,149.9,95.9z"/>
		<path class="st0" d="M150,27L52.4,98.3l97.6,71.3l97.6-71.3L150,27z M154,123.6c-2.8,0-5.1-0.7-7.2-2.2c-2-1.5-3.5-3.4-4.5-5.9
			l-0.3,7.4h-10.4V73.1h11.9v20.7c1-2.1,2.4-3.7,4.2-4.8c1.8-1.2,3.9-1.7,6.4-1.7c4.5,0,8,1.6,10.6,4.8c2.6,3.2,3.8,7.7,3.8,13.5
			c0,5.7-1.3,10.1-3.8,13.3C162.1,122,158.6,123.6,154,123.6z"/>
	</g>
	<g id="links_unten">
		<path class="st0" d="M99.5,177.9c-2.2,0-3.9,0.8-5,2.3s-1.6,4-1.6,7.4s0.5,5.9,1.6,7.4s2.7,2.3,5,2.3c2.2,0,3.9-0.8,5-2.3
			s1.6-4,1.6-7.4s-0.5-5.9-1.6-7.4S101.8,177.9,99.5,177.9z"/>
		<path class="st0" d="M148,173.2l-97-70.9v99.4l97.1,71.3L148,173.2z M113.1,201.1c-3.2,3.2-7.8,4.8-13.6,4.8
			c-5.8,0-10.4-1.6-13.6-4.8s-4.9-7.7-4.9-13.4s1.6-10.2,4.9-13.4c3.2-3.2,7.8-4.8,13.6-4.8c5.8,0,10.4,1.6,13.6,4.8
			s4.9,7.7,4.9,13.4S116.4,197.9,113.1,201.1z"/>
	</g>
	<path id="rechts_unten" class="st0" d="M152,173.2l0.1,99.8l96.9-71.3v-99.4L152,173.2z M207.3,205.2l-6.9-12.2l-7,12.2h-13.2
		l12.6-17.7l-12.1-17.3h13.5l6.4,11.7l6.6-11.7h13.2l-12.2,17.4l12.5,17.6H207.3z"/>
</g>
</svg>
