<?xml version="1.0" encoding="utf-8"?>
<!-- Generator: Adobe Illustrator 22.0.1, SVG Export Plug-In . SVG Version: 6.00 Build 0)  -->
<svg version="1.1"
	 id="svg2024" inkscape:version="0.44" sodipodi:docbase="C:\Dokumente und Einstellungen\Andreas\Eigene Dateien\Eigene Bilder\sonstiges\Logos\Vektor\Sports" sodipodi:docname="adidas-group-logo.svg" sodipodi:version="0.32" xmlns:cc="http://web.resource.org/cc/" xmlns:dc="http://purl.org/dc/elements/1.1/" xmlns:inkscape="http://www.inkscape.org/namespaces/inkscape" xmlns:rdf="http://www.w3.org/1999/02/22-rdf-syntax-ns#" xmlns:sodipodi="http://sodipodi.sourceforge.net/DTD/sodipodi-0.dtd" xmlns:svg="http://www.w3.org/2000/svg"
	 xmlns="http://www.w3.org/2000/svg" xmlns:xlink="http://www.w3.org/1999/xlink" x="0px" y="0px" viewBox="0 0 921.3 219.9"
	 style="enable-background:new 0 0 921.3 219.9;" xml:space="preserve">
<style type="text/css">
	.st0{fill:#0A0A0A;}
</style>
<g id="layer1" transform="translate(222.0753,-417.8514)" inkscape:groupmode="layer" inkscape:label="Ebene 1">
	<g id="g2047">
		<path id="path34" class="st0" d="M-141.1,631.9c-44.6,0-81-36.6-81-81.1c0-45.6,36.4-81.1,81-81.1c17.3,0,33.7,4.6,47.4,13.8
			v-11.9h38.2v156.6h-38.2v-10C-107.4,626.3-122.8,631.9-141.1,631.9z M-184.7,550.8c0,23.6,20.9,44.5,44.6,44.5
			c25.5,0,46.4-20.9,46.4-44.5c0-24.6-21-45.6-46.4-45.6C-163.8,505.2-184.7,526.2-184.7,550.8z M39.2,631.9
			c-44.6,0-81.9-36.6-81.9-81.1c0-45.6,37.3-81.1,81.9-81.1c17.3,0,32.8,4.6,46.5,13.8v-65.6h39.1v210.3H85.6v-10
			C72,626.3,56.5,631.9,39.2,631.9z M-5.4,550.8c0,23.6,21,44.5,46.5,44.5c23.6,0,44.6-20.9,44.6-44.5c0-24.6-21-45.6-44.6-45.6
			C15.5,505.2-5.4,526.2-5.4,550.8z M182,628.1h-38.2V471.5H182V628.1z M182,457h-38.2v-39.2H182V457z M326,417.9h38.2v210.3H326
			v-10c-12.8,8.2-29.2,13.8-46.5,13.8c-44.7,0-81-36.6-81-81.1c0-45.6,36.3-81.1,81-81.1c17.3,0,32.8,4.6,46.5,13.8V417.9z
			 M235.8,550.8c0,23.6,20.9,44.5,44.6,44.5c24.6,0,45.6-20.9,45.6-44.5c0-24.6-21-45.6-45.6-45.6
			C256.7,505.2,235.8,526.2,235.8,550.8z M458.8,631.9c-44.7,0-81.9-36.6-81.9-81.1c0-45.6,37.3-81.1,81.9-81.1
			c17.3,0,32.8,4.6,45.5,13.8v-11.9h39.1v156.6h-39.1v-10C491.5,626.3,476.1,631.9,458.8,631.9z M415,550.8
			c0,23.6,21,44.5,45.6,44.5c23.6,0,43.7-20.9,43.7-44.5c0-24.6-20.1-45.6-43.7-45.6C436,505.2,415,526.2,415,550.8z M629,631.9
			c38.3,0,70.2-15.7,70.2-53.9c0-21.8-15.4-36.3-40-42.7c-25.6-6.4-58.3-5.4-58.3-21.8c1.8-10.9,11.8-13.7,27.3-13.7
			c23.7,0,24.6,12.8,25.5,20.9h39.1c-2.8-30.1-27.3-51-66.3-51c-41,0-64.8,21.9-64.8,50.2c0,16.3,8.2,30.9,21.9,38.2
			c10,4.6,23.7,8.2,40,10.9c17.3,1.8,32.9,3.6,33.8,15.5c0,8.3-8.3,18.2-26.4,18.2c-26.4,0-31.8-14.6-31.8-24.7h-41
			C559,609.9,585.5,631.9,629,631.9"/>
		<path id="path36" class="st0" d="M673.5,421.5c10,0,18.3,8.3,18.3,19.1c0,9.9-8.3,18.2-18.3,18.2c-9.9,0-18.3-8.3-18.3-18.2
			C655.2,429.8,663.6,421.5,673.5,421.5z M673.5,424c-9,0-15.7,7.4-15.7,16.6c0,8.3,6.7,15.7,15.7,15.7c8.4,0,15.8-7.4,15.8-15.7
			C689.2,431.4,681.9,424,673.5,424z M677.6,440.6c0.9,0,3.3,0.8,3.3,4.1v5.8h-3.3V448c0-4.2-0.8-5.8-3.3-5.8h-4.1v8.3h-3.3v-20.8
			h6.6c4.2,0,7.5,2.6,7.5,5.8C681,438.1,679.4,440.6,677.6,440.6z M670.2,433.1v5.8h3.3c1.8,0,4.2-0.8,4.2-2.5
			c0-1.7-1.6-3.3-3.3-3.3H670.2"/>
	</g>
</g>
</svg>
