<?xml version="1.0" encoding="utf-8"?>
<!-- Generator: Adobe Illustrator 22.0.1, SVG Export Plug-In . SVG Version: 6.00 Build 0)  -->
<svg version="1.1" xmlns="http://www.w3.org/2000/svg" xmlns:xlink="http://www.w3.org/1999/xlink" x="0px" y="0px"
	 viewBox="0 0 284 99" style="enable-background:new 0 0 284 99;" xml:space="preserve">
<style type="text/css">
	.st0{fill:none;}
	.st1{fill:#0A0A0A;}
</style>
<g id="Boundingbox">
	<rect class="st0" width="284" height="99"/>
</g>
<g id="Audi">
	<path class="st1" d="M234.7,0.5c-11.7,0-22.5,4.1-30.9,11c-8.4-6.9-19.2-11-30.9-11c-11.7,0-22.5,4.1-30.9,11
		c-8.4-6.9-19.2-11-30.9-11c-11.7,0-22.5,4.1-30.9,11c-8.4-6.9-19.2-11-30.9-11c-27.1,0-49,22-49,49s22,49,49,49
		c11.7,0,22.5-4.1,30.9-11c8.4,6.9,19.2,11,30.9,11c11.7,0,22.5-4.1,30.9-11c8.4,6.9,19.2,11,30.9,11c11.7,0,22.5-4.1,30.9-11
		c8.4,6.9,19.2,11,30.9,11c27.1,0,49-22,49-49S261.8,0.5,234.7,0.5z M203.8,71.5c-4.4-6.2-7.1-13.8-7.1-22s2.6-15.8,7.1-22
		c4.4,6.2,7.1,13.8,7.1,22S208.2,65.3,203.8,71.5z M142,71.5c-4.4-6.2-7.1-13.8-7.1-22s2.6-15.8,7.1-22c4.4,6.2,7.1,13.8,7.1,22
		S146.4,65.3,142,71.5z M80.2,71.5c-4.4-6.2-7.1-13.8-7.1-22s2.6-15.8,7.1-22c4.4,6.2,7.1,13.8,7.1,22
		C87.3,57.7,84.6,65.3,80.2,71.5z M11.3,49.5c0-21,17-38,38-38c8.7,0,16.7,2.9,23.1,7.8c-6.5,8.3-10.3,18.8-10.3,30.1
		c0,11.4,3.9,21.8,10.3,30.1C66,84.5,58,87.5,49.3,87.5C28.3,87.5,11.3,70.5,11.3,49.5z M88,79.6c6.5-8.3,10.3-18.8,10.3-30.1
		c0-11.4-3.9-21.8-10.3-30.1c6.4-4.9,14.4-7.8,23.1-7.8c8.7,0,16.7,2.9,23.1,7.8c-6.5,8.3-10.3,18.8-10.3,30.1
		c0,11.4,3.9,21.8,10.3,30.1c-6.4,4.9-14.4,7.8-23.1,7.8C102.4,87.5,94.4,84.5,88,79.6z M149.8,79.6c6.5-8.3,10.3-18.8,10.3-30.1
		c0-11.4-3.9-21.8-10.3-30.1c6.4-4.9,14.4-7.8,23.1-7.8c8.7,0,16.7,2.9,23.1,7.8c-6.5,8.3-10.3,18.8-10.3,30.1
		c0,11.4,3.9,21.8,10.3,30.1c-6.4,4.9-14.4,7.8-23.1,7.8C164.2,87.5,156.2,84.5,149.8,79.6z M234.7,87.5c-8.7,0-16.7-2.9-23.1-7.8
		c6.5-8.3,10.3-18.8,10.3-30.1c0-11.4-3.9-21.8-10.3-30.1c6.4-4.9,14.4-7.8,23.1-7.8c21,0,38,17,38,38S255.7,87.5,234.7,87.5z"/>
</g>
</svg>
