<?xml version="1.0" encoding="utf-8"?>
<!-- Generator: Adobe Illustrator 22.0.1, SVG Export Plug-In . SVG Version: 6.00 Build 0)  -->
<svg version="1.1"
	 id="Ebene_1" xmlns:cc="http://creativecommons.org/ns#" xmlns:dc="http://purl.org/dc/elements/1.1/" xmlns:rdf="http://www.w3.org/1999/02/22-rdf-syntax-ns#"
	 xmlns="http://www.w3.org/2000/svg" xmlns:xlink="http://www.w3.org/1999/xlink" x="0px" y="0px" viewBox="0 0 202 67.5"
	 style="enable-background:new 0 0 202 67.5;" xml:space="preserve">
<style type="text/css">
	.st0{fill:#0A0A0A;}
</style>
<path class="st0" d="M168.1,56.8c0,0-0.6,0.5-0.6,0.5c-0.9,0.8-1.8,1.6-2.9,1.2c-0.3-0.1-0.5-0.5-0.6-0.8c0-2.3,1-4.3,1.9-6.4
	l0.3-0.5c2.8-4.7,6.1-10.3,10.9-14.1c0.8-0.6,1.7-1.1,2.6-0.7c0.2,0.2,0.5,0.5,0.5,0.9c0,0.1-0.1,0.4-0.2,0.5
	c-1.3,2.2-2.6,4.5-3.9,6.7C173.8,48.4,171.3,52.9,168.1,56.8L168.1,56.8z M142,45.7c-0.2,0.1-3.4-1-4.1-4c-0.5-2.6,1.3-4.6,3-5.7
	c0.7-0.6,1.9-0.8,2.7-0.5c0.8,0.5,1,1.4,1,2.4c0,0.6-0.1,1.2-0.2,1.8c0,0,0,0.1,0,0.1C143.8,41.9,143,43.9,142,45.7L142,45.7z
	 M129.5,58c-0.3-0.5-0.4-1-0.5-1.6c-0.1-3.6,3.8-10,6.5-13.5h0c1.1,2.5,3.7,4.1,5.3,4.8C138.9,52,132.3,61.2,129.5,58L129.5,58z
	 M176.6,58.6c-0.6,0.4-1.6,0.1-1.2-0.9c0.8-2.6,4.2-7.8,4.2-7.8l9.3-16.6h-6.4c-0.3,0.5-1,1.6-1,1.6c-0.3-0.5-1.2-1.6-1.5-1.8
	c-1.6-1-3.9-0.5-5.4,0.4c-6.9,4-11.9,12-15.9,18.2c0,0-4.2,6.9-6.5,7.4c-1.8,0.1-1.6-2.3-1.5-2.9c0.7-4.1,2.3-8,4-11.5
	c3.3-2.3,7.1-5.3,10.6-8.6c7.5-7.2,13.8-15.3,14.7-17.1c0,0-1,0.2-2.2,0.2c-5.8,8-17.5,19.7-21.1,21.4c1.6-3.8,11.8-22,20.5-30.7
	l1.4-1.3c2.1-2.1,4.3-4.2,6-4.5c0.2,0,0.4,0,0.6,0.4c0.1,1.6-0.5,2.8-1.2,4.2l-1,2c0,0,1.4-0.3,2.3-0.5c1-2,2.2-4.2,1.8-6.8
	c-0.1-0.8-0.8-1.5-1.5-1.6c-2.6-0.5-5.4,1.4-7.7,3l-0.1,0.1c-11.7,9.2-21.6,22.4-30.2,40.4c-0.6,0.5-3,1-3.5,0.8
	c0.9-1.8,1.9-4.1,2.5-6.7c0.1-0.7,0.2-1.5,0.2-2.2c0-1.6-0.4-3.1-1.8-4.1c-1.7-0.8-3.7-0.4-5.1,0.2c-6.2,2.6-10.8,8.9-14.1,14.1
	c-1.8,3.3-3.6,6.9-4.1,10.9c-0.3,3.2,0.4,5.2,2.2,6.3c1.9,1,4.2,0,5.1-0.5c6.3-3.3,10.6-9.9,14.1-15.9c0.1,0,2-0.1,3.4-0.4
	c0,0,0,0,0.1,0c-0.1,0.3-0.8,2.5-0.8,2.5c-2.2,6.4-3.2,10.8-1.1,13.3c2.9,3.6,7.8-0.1,11.8-5.1c-0.9,6,2.2,6.9,4.6,6.4
	c2.7-0.7,5.7-3.6,7.1-5.1c-0.4,1.7-0.3,4.8,2.1,5.2c1.7,0.3,3-0.6,4.4-1.4c5.2-2.9,11.5-12.4,13.1-15.1h-2.1
	C183.2,51.9,180.3,56.4,176.6,58.6L176.6,58.6z M95.8,23.1h6l3.4-5.5h-6L95.8,23.1z M191.7,8.5c-4.6,2.6-9.3,4.3-15.1,3.7
	c-1.6,1.8-3.1,3.6-4.6,5.5c8.1,2,16.6-2.5,21.4-6.8c5-4.4,7.6-9.9,7.6-9.9S197.2,5.3,191.7,8.5L191.7,8.5z M141.2,7.1
	c-1,10.9-9.5,17.4-11.6,17.9c-1.3,0.3-3.5-0.3-1.5-4.9c2.9-6.2,7.7-11.4,13-14.1C141.2,6.4,141.2,6.7,141.2,7.1L141.2,7.1z
	 M124.6,34.7c-0.6-1.3-2.1-2.2-3.6-2.1c-5,0.5-9.9,4.6-12.5,10.5c-1.3,3-2.1,5.5-2.6,9.5c1.6-1.8,4.7-4.7,8.3-6.3c0,0,0.5-3.8,3-7.2
	c0.9-1.4,2.8-3.7,5-3.1c1.9,0.6,1.2,5.8-1.3,10.7c-1.8,3.7-4.6,7.3-7.4,9.8c-2.5,2.1-6.2,4.7-9.4,2.7c-2-1.2-3.1-3.7-2.9-7
	c1-9.2,5.2-17.1,11.2-26.1c6.2-8.3,13-16.9,22.3-21.4c1.9-1,3.6-1.2,5.1-0.6c0,0-8.7,4.8-12.8,13.6c-1,2.2-2.5,5.3-1,7.9
	c0.8,1.4,2.1,1.5,3.2,1.4c5.1-1.2,8.3-5.9,11-10.2c1.5-3.3,2.9-6.5,2.9-10.2c0-0.4,0-1-0.1-1.5c2.4-1.3,7.4,1,7.4,1
	c3.9,1.3,12.1,7.6,14.9,8.8c1.4-1.6,3.6-4,4.8-5.1l-1.8-1.1c-2.9-1.8-6-3.5-9-5.1c-6.9-3.8-12.5-2.4-15.3-1.4
	C143,2.7,141.9,3,141.9,3c-2.1-2.3-5.6-2.1-8.1-1.5c-9.2,2.6-17.7,9.1-26.8,20.2c-6.7,8.7-10.9,16.3-13.1,23.7
	c-1.7,5-2.2,12.4,1.9,16.8c3.6,3.7,8.3,2.9,11.6,1.6c7.2-3.5,13.7-11.2,16.9-20C125.1,41.2,126,37.5,124.6,34.7L124.6,34.7z
	 M44.7,26.2c0,0-1.2,2.8-1.2,2.8c-0.2,0.1-0.5,0.1-0.8,0l-0.5-0.1c-1.7-0.5-3-1.7-3.4-3c-0.5-2.6,1.7-4.7,2.7-5.5
	c1-0.7,2.4-1,3.3-0.3c0.5,0.6,0.7,1.4,0.7,2.3C45.5,23.6,45.2,24.9,44.7,26.2L44.7,26.2z M42.1,31.5c0,0-0.1,0.2-0.1,0.2
	c0,0-2.8,4.5-2.8,4.5c-1.7,2.2-3.7,5-6.3,6.3c-0.8,0.3-1.8,0.4-2.4-0.3c-1.1-1.4-0.6-3.3-0.1-4.8l0.2-0.5c1.4-3.7,3.6-7,5.7-10.1
	c0,0,0.1,0,0.1,0c0,0,0,0,0,0.1c1.3,2.6,3.8,3.7,5.7,4.3c0,0,0,0,0,0.1C42.2,31.2,42.2,31.3,42.1,31.5L42.1,31.5z M76.5,28.5
	c1.2-1.7,4.8-6.3,5.7-7c2.9-2.6,4.1-1.4,4.2-0.6c-2.7,4.9-6,10.5-9,15.6c0,0-1,1.4-1,1.4c-1.3,2-2.7,3.8-4.9,5
	c-0.3,0.1-0.8,0.1-1.2-0.1c-0.4-0.3-0.6-0.7-0.5-1.2C70,40,71.6,35.2,76.5,28.5L76.5,28.5z M46.1,17.4c-3.8-2.5-11.4,2.3-17.5,10.4
	c-5.6,7.3-8,15.8-5.4,19.8c3.9,4.6,11.1-2.1,14.2-5.7l0.4-0.4c2.1-2.3,3.7-5,5.3-7.6c0,0,1.4-2.4,1.5-2.5c0.9-0.2,2-0.4,3.2-0.8
	c0,0.1-4.6,7.8-4.2,11.6c0.1,1.2,0,5.5,4.2,6.8c5.6,0.9,10-3.4,13.9-7.2c0,0,0.7-0.6,1-1c-0.1,0.4-0.2,0.9-0.2,0.9
	c-1.6,5.7,0.6,6.9,1.9,7.3c4.2,1.2,9.1-4.8,9.1-4.8c-0.1,1.9-0.5,3.5,1.5,4.7c1.9,0.7,3.8-0.4,5.3-1.3c5.2-3.7,9.5-9.5,12.9-14.5
	h-2.2c0,0-5.4,7.7-8.8,9.4c0,0-0.6,0.3-1,0.1c-0.5-0.4-0.3-1.2,0-1.7c0,0,13.4-23.2,13.4-23.2h-6.3c0,0-0.7,1.1-0.7,1.2
	c0,0-0.1-0.2-0.2-0.3C83.5,13.1,74.6,21.4,68,31c-2.6,3.7-5.8,7.9-9.2,10.9c0,0-5,4.6-7.2,1.3c-0.8-1.4-0.5-3.4-0.1-4.8
	c2.5-7.1,6.8-13.6,11.7-17.5c1.4-1.1,2.9-1.4,3.6-0.9c0.7,0.4,0.8,1.5,0.4,2.2c-1.1,0-2.1,0.3-2.8,1.1c-1.5,1.5-2,3-1.5,4.4
	c2.3,3.2,6.8-3.1,6.6-7c-0.1-1.4-0.8-2.7-1.9-3.3c-1.7-1-4.2-0.7-5.8,0.1c-2.2,0.8-5.6,3.7-7.6,5.9c-2.5,2.8-6.9,5.9-8.2,5.6
	C46.2,27.7,49.9,20.2,46.1,17.4L46.1,17.4z M77.8,58.1C70.4,53.3,60.3,52.5,44,57c-17.4,4.1-23.2,6.7-30.8,1.4
	c-2.9-2.6-4-6.7-3.2-12.7c1.8-9.8,6.7-19.1,15.4-29.5c4.9-5.4,9.4-10.1,15.3-11.9c4.6-1.2,4.1,2.4,3.6,2.9c-0.6,0-1.6,0.1-2.3,0.6
	c-0.6,0.5-2.3,2-2.4,4.1c-0.1,3.2,3.1,2.5,4.6,0.8c1.5-2,3.8-5.7,2-9.2c-0.7-1.2-2-2.1-3.6-2.4c-5.5-0.3-10.5,2.3-15.2,5.2
	C17.2,13.3,9,23.1,4.3,33.9c-2.7,6.5-5.1,15.8-1.5,23.4c2.8,5.3,8.6,8.1,15.6,7.5c4.9-0.5,10.8-2.1,14.7-3c4-1,24.2-7.9,30.9,4.2
	c0,0,2.2-4.3,7.8-4.4c4.6-0.4,11.1,1.3,15.9,4.8C86.1,64.1,81.6,60.5,77.8,58.1L77.8,58.1z"/>
</svg>
