<?xml version="1.0" encoding="utf-8"?>
<!-- Generator: Adobe Illustrator 22.0.1, SVG Export Plug-In . SVG Version: 6.00 Build 0)  -->
<svg version="1.1" id="Ebene_1" xmlns="http://www.w3.org/2000/svg" xmlns:xlink="http://www.w3.org/1999/xlink" x="0px" y="0px"
	 viewBox="0 0 266 100" style="enable-background:new 0 0 266 100;" xml:space="preserve">
<style type="text/css">
	.st0{fill:#0A0A0A;}
</style>
<g>
	<path class="st0" d="M143.9,42.8c-3.3-0.4-6.1,0.6-8.5,3.5V28.6l-8.7,1.1v41h8.7v-2.4c1.2,0.8,2.3,1.8,3.7,2.3
		c5.1,1.8,11.8,0.3,14.1-6.4c1.5-4.4,1.5-8.8,0.3-13.2C152.2,46.1,148.9,43.4,143.9,42.8L143.9,42.8z M145.2,60.6
		c-0.4,2.7-2.5,4.1-5.1,3.9c-0.6-0.1-1.2-0.2-1.7-0.4c-2.1-1.2-2.7-3.2-2.9-4.4c0,0,0,0,0,0c-0.1-1.9-0.3-6,0.6-7.9
		c0.8-1.5,2.2-2.3,4-2.3c2.6-0.1,4.6,1.2,5,3.9C145.5,55.8,145.5,58.3,145.2,60.6L145.2,60.6z M174.7,43.3c-3-0.8-6.1-0.8-9.1,0
		c-4.5,1.2-7.6,4.1-8.5,8.6c-0.5,2.5-0.6,5.1-0.5,7.7c0.3,5.8,3.9,10,9.5,11.3c0.1,0,0.2,0,0.2,0.1h0l0,0c0.2,0,0.4,0.1,0.6,0.1
		l0.2,0h0c0.3,0.1,0.6,0.1,0.9,0.1c1.1,0.1,2.5,0.2,3.6,0.1c0,0,0,0,0,0c0.1,0,0.1,0,0.2,0c5.8-0.3,10.1-3.9,11.4-9.5
		c0.7-3.1,0.7-6.1,0-9.2C182.4,47.7,179.5,44.6,174.7,43.3L174.7,43.3z M175.1,60.2c0,0.2-0.1,0.4-0.1,0.5c-0.6,2.6-2.4,4-4.9,3.8
		c-2.7-0.1-4.5-1.7-4.8-4.4c-0.2-2-0.2-3.9,0-5.9c0.3-3.1,2.2-4.8,5.1-4.7c2.4,0,4.1,1.4,4.7,3.7C175.6,55.6,175.2,59.6,175.1,60.2
		L175.1,60.2z M44.1,43.2h-6.2v-4.1c0.5-3.9,6.9-3.2,6.9-3.2l0-0.3l0,0v-6.4h0c-0.2-0.1-12.8-3-15.3,6.6c0,0,0,0,0,0l0,0.1
		C29,37,29,42.5,29,43.2h-5.4v7.3h5.7v20h8.3v-20h6.4l0.7-7.3L44.1,43.2L44.1,43.2z M63.9,46.7c-0.1-0.1-0.2-0.2-0.3-0.3
		c0,0,0,0,0,0c-0.1-0.1-0.2-0.2-0.2-0.2c-2-2-2.7-2.5-4.2-2.9c-5.9-1.7-11.7,1.4-13.5,7.3c-1.1,3.7-1.1,7.4-0.5,11.1
		c1.4,8,7.4,10.7,13.7,9.4c1.9-0.4,3.4-1.6,4.7-3.3c0,0,0.1-0.1,0.3-0.4v3.5H72V43.2h-8.1L63.9,46.7L63.9,46.7z M63.2,60.6
		c-0.3,2.5-2.3,4.1-4.8,4c-2.5-0.1-4.1-1.4-4.7-3.8c-0.6-3.4,0.1-7.5,0.2-7.8c0.7-2.3,2.3-3.4,4.8-3.4c2.4,0.1,4.2,1.5,4.5,4
		C63.4,55.9,63.4,58.2,63.2,60.6z M96.9,68.8c-0.4-1.4-0.8-2.7-1.2-4.1l-0.4-1.5c0,0-10.2,4.9-11.8-4.4c-0.1-1.5-0.1-3.1,0.1-4.6
		c0.4-2.9,2.1-4.4,4.9-4.6c0.9-0.1,1.9,0,2.8,0.1c1.3,0.2,2.5,0.6,3.9,0.9c0.5-1.5,1-2.9,1.4-4.4c0.1-0.2,0.1-0.4,0.2-0.6l0.2-0.9
		c-0.1-0.1-0.2-0.2-0.4-0.4c-0.2-0.2-0.6-0.4-1.3-0.6c-0.2-0.1-0.5-0.2-0.8-0.2c-0.2-0.1-0.4-0.1-0.4-0.1h0
		c-2.7-0.8-5.4-0.8-8.2-0.5c-5.9,0.6-9.9,4.1-11,9.8c-0.6,3-0.6,6.1,0.1,9.1c1,4.5,3.7,7.5,8.2,8.8c2.9,0.9,5.9,0.9,8.9,0.4
		c1.2-0.2,3-0.8,4.3-1.3l0.5-0.2L96.9,68.8L96.9,68.8L96.9,68.8z M123.7,58c0-1.9,0-3.8-0.3-5.7c-0.7-5.1-3.9-8.4-8.9-9.2
		c-1.9-0.3-4-0.3-5.9-0.1c-5.4,0.5-9.4,3.9-10.3,8.9c-0.5,3.1-0.6,6.3-0.2,9.4c0.6,4.6,2.9,7.5,6.7,9h0c0,0,0,0,0.1,0v0
		c1.8,0.5,10.4,2.8,18.1-1l-0.3-1.1c0,0,0,0,0,0c-0.4-1.5-0.8-3-1.2-4.5l0-0.1c0,0-0.2,0.1-0.4,0.1c0,0,0,0,0,0
		c-0.3,0.1-0.7,0.2-1,0.3c-0.1,0-0.1,0-0.2,0.1c-1.2,0.3-2.8,0.7-4.6,1c-1.5,0.1-2.9,0.2-4.4,0c-2.4-0.4-4.3-1.7-4.2-4.8h15.7
		c0.1,0,0.2,0,0.3,0v0c0,0,1,0,1.1,0v-0.3L123.7,58L123.7,58z M115.8,54.3h-9.4c0.1-1.9,0.3-3.6,1.9-4.7c1.8-1.1,3.7-1.2,5.5-0.2
		C115.7,50.5,115.9,52.3,115.8,54.3L115.8,54.3z M242.4,43.5h-9.2l-8,12.5V28.7l-8.7,1.1v41h8.7V58.2l8,12.6h9.2l-8.7-13.7
		 M204.4,43.3c-3-0.8-6.1-0.8-9.1,0c-4.5,1.2-7.5,4.1-8.5,8.6c-0.5,2.5-0.6,5.1-0.5,7.7c0.3,5.8,3.9,10,9.5,11.3
		c0.1,0,0.2,0,0.2,0.1h0l0,0c0.2,0,0.4,0.1,0.6,0.1c0.1,0,0.1,0,0.2,0c0,0,0,0,0,0c0.3,0.1,0.6,0.1,0.9,0.1c1.1,0.1,2.5,0.2,3.6,0.1
		l0,0c0.1,0,0.1,0,0.2,0c5.8-0.3,10.1-3.9,11.4-9.5c0.7-3.1,0.7-6.1,0-9.2C212.1,47.7,209.2,44.6,204.4,43.3L204.4,43.3z
		 M204.8,60.2c0,0.2-0.1,0.4-0.1,0.5c-0.6,2.6-2.4,4-4.9,3.8c-2.7-0.1-4.5-1.7-4.8-4.4c-0.2-2-0.2-3.9,0-5.9
		c0.3-3.1,2.2-4.8,5.1-4.7c2.4,0,4.1,1.4,4.7,3.7C205.2,55.6,204.8,59.6,204.8,60.2L204.8,60.2z"/>
</g>
</svg>
