<?xml version="1.0" encoding="utf-8"?>
<!-- Generator: Adobe Illustrator 22.0.1, SVG Export Plug-In . SVG Version: 6.00 Build 0)  -->
<svg version="1.1" id="Ebene_1" xmlns="http://www.w3.org/2000/svg" xmlns:xlink="http://www.w3.org/1999/xlink" x="0px" y="0px"
	 viewBox="0 0 300 335.6" style="enable-background:new 0 0 300 335.6;" xml:space="preserve">
<style type="text/css">
	.st0{fill:#0A0A0A;}
</style>
<g id="icon_x5F_mit_x5F_schrift">
	<g id="oben">
		<path class="st0" d="M149.9,95.9c-2.1,0-3.6,0.8-4.8,2.4c-1.1,1.6-1.7,3.8-1.7,6.7v0.7c0,3,0.6,5.2,1.7,6.8
			c1.1,1.5,2.7,2.3,4.7,2.3c2.1,0,3.7-0.8,4.9-2.3c1.1-1.5,1.7-3.9,1.7-7.1s-0.6-5.6-1.7-7.1C153.6,96.7,152,95.9,149.9,95.9z"/>
		<path class="st0" d="M150,27L52.4,98.3l97.6,71.3l97.6-71.3L150,27z M154,123.6c-2.8,0-5.1-0.7-7.2-2.2c-2-1.5-3.5-3.4-4.5-5.9
			l-0.3,7.4h-10.4V73.1h11.9v20.7c1-2.1,2.4-3.7,4.2-4.8c1.8-1.2,3.9-1.7,6.4-1.7c4.5,0,8,1.6,10.6,4.8c2.6,3.2,3.8,7.7,3.8,13.5
			c0,5.7-1.3,10.1-3.8,13.3C162.1,122,158.6,123.6,154,123.6z"/>
	</g>
	<g id="links_unten">
		<path class="st0" d="M99.5,177.9c-2.2,0-3.9,0.8-5,2.3s-1.6,4-1.6,7.4s0.5,5.9,1.6,7.4s2.7,2.3,5,2.3c2.2,0,3.9-0.8,5-2.3
			s1.6-4,1.6-7.4s-0.5-5.9-1.6-7.4S101.8,177.9,99.5,177.9z"/>
		<path class="st0" d="M148,173.2l-97-70.9v99.4l97.1,71.3L148,173.2z M113.1,201.1c-3.2,3.2-7.8,4.8-13.6,4.8
			c-5.8,0-10.4-1.6-13.6-4.8s-4.9-7.7-4.9-13.4s1.6-10.2,4.9-13.4c3.2-3.2,7.8-4.8,13.6-4.8c5.8,0,10.4,1.6,13.6,4.8
			s4.9,7.7,4.9,13.4S116.4,197.9,113.1,201.1z"/>
	</g>
	<path id="rechts_unten" class="st0" d="M152,173.2l0.1,99.8l96.9-71.3v-99.4L152,173.2z M207.3,205.2l-6.9-12.2l-7,12.2h-13.2
		l12.6-17.7l-12.1-17.3h13.5l6.4,11.7l6.6-11.7h13.2l-12.2,17.4l12.5,17.6H207.3z"/>
</g>
<g>
	<path d="M72,311.4v4h-16v-20.1h15.6v4H61.2v4.1h8.3v3.8h-8.3v4.1H72z"/>
	<path d="M93.2,315.4h-5.8l-6.2-10.8l-1.5-3h0l0.1,3.8v10.1h-4.6v-20.1h5.8l6.2,10.8l1.5,3h0l-0.1-3.8v-10.1h4.6V315.4z"/>
	<path d="M114.5,299.4H108v16h-5.2v-16h-6.6v-4h18.3V299.4z"/>
	<path d="M133.5,311.4v4h-16v-20.1h15.6v4h-10.4v4.1h8.3v3.8h-8.3v4.1H133.5z"/>
	<path d="M144.9,308.1h-3.1v7.3h-5.1v-20.1h9.6c2.4,0,4.3,0.5,5.6,1.6c1.3,1.1,2,2.7,2,4.7c0,1.5-0.3,2.7-1,3.6
		c-0.7,1-1.6,1.7-2.9,2.2l5.1,7.9h-5.8L144.9,308.1z M141.8,304.4h3.6c1.1,0,1.9-0.2,2.4-0.6c0.5-0.4,0.8-1.1,0.8-1.9
		c0-0.9-0.3-1.5-0.8-1.9c-0.5-0.4-1.3-0.6-2.4-0.6h-3.6V304.4z"/>
	<path d="M172.5,297.1c1.3,1.1,2,2.8,2,4.9c0,2-0.7,3.6-2,4.8c-1.3,1.1-3.3,1.7-5.7,1.7h-4v7h-5.2v-20.1h9.2
		C169.3,295.4,171.2,296,172.5,297.1z M168.5,304c0.5-0.4,0.8-1.1,0.8-2c0-0.9-0.3-1.6-0.8-2c-0.5-0.4-1.4-0.7-2.5-0.7h-3.2v5.3h3.2
		C167.1,304.6,167.9,304.4,168.5,304z"/>
	<path d="M186.1,308.1H183v7.3h-5.1v-20.1h9.6c2.4,0,4.3,0.5,5.6,1.6c1.3,1.1,2,2.7,2,4.7c0,1.5-0.3,2.7-1,3.6
		c-0.7,1-1.6,1.7-2.9,2.2l5.1,7.9h-5.8L186.1,308.1z M183,304.4h3.6c1.1,0,1.9-0.2,2.4-0.6c0.5-0.4,0.8-1.1,0.8-1.9
		c0-0.9-0.3-1.5-0.8-1.9c-0.5-0.4-1.3-0.6-2.4-0.6H183V304.4z"/>
	<path d="M204,315.4h-5.2v-20.1h5.2V315.4z"/>
	<path d="M221.2,295.9c1.3,0.6,2.6,1.5,3.8,2.8l-2.9,3.4c-0.7-1-1.5-1.8-2.4-2.2c-0.9-0.5-2-0.7-3.2-0.7c-1.1,0-1.9,0.2-2.4,0.5
		c-0.6,0.4-0.9,0.9-0.9,1.5c0,0.5,0.3,0.9,0.9,1.2s1.6,0.6,3.1,0.9c2.8,0.5,4.8,1.2,5.9,2.2c1.2,1,1.8,2.3,1.8,4.1
		c0,1.3-0.4,2.4-1.1,3.3c-0.7,0.9-1.7,1.6-3,2.1c-1.3,0.5-2.7,0.7-4.4,0.7c-2.3,0-4.1-0.3-5.5-0.8c-1.4-0.6-2.6-1.4-3.7-2.6l2.7-3.6
		c0.8,1.1,1.7,1.9,2.7,2.3c1,0.4,2.2,0.7,3.6,0.7c1.1,0,1.9-0.2,2.5-0.5c0.6-0.3,0.8-0.8,0.8-1.4c0-0.5-0.3-0.8-0.9-1.1
		c-0.6-0.3-1.6-0.6-3-0.8c-1.7-0.3-3.1-0.8-4.3-1.2c-1.1-0.5-2-1.1-2.6-1.9c-0.6-0.8-0.9-1.8-0.9-3.1c0-1.3,0.3-2.4,1-3.4
		c0.7-1,1.7-1.8,3-2.3s2.9-0.8,4.6-0.8C218.2,295.1,219.8,295.4,221.2,295.9z"/>
	<path d="M244.1,311.4v4h-16v-20.1h15.6v4h-10.4v4.1h8.3v3.8h-8.3v4.1H244.1z"/>
</g>
</svg>
