<?xml version="1.0" encoding="utf-8"?>
<!-- Generator: Adobe Illustrator 22.0.1, SVG Export Plug-In . SVG Version: 6.00 Build 0)  -->
<svg version="1.1" id="Ebene_1" xmlns="http://www.w3.org/2000/svg" xmlns:xlink="http://www.w3.org/1999/xlink" x="0px" y="0px"
	 viewBox="0 0 200 200" style="enable-background:new 0 0 200 200;" xml:space="preserve">
<style type="text/css">
	.st0{fill:#0A0A0A;}
	.st1{fill:#ffffff;}
</style>
<path class="st0" d="M100,200C44.8,200,0,155.2,0,100S44.8,0,100,0s100,44.8,100,100C199.9,155.2,155.2,199.9,100,200z M100,7.7
	C49,7.7,7.7,49,7.7,100S49,192.3,100,192.3s92.3-41.3,92.3-92.3l0,0C192.3,49,151,7.7,100,7.7z"/>
<g>
	<path class="st1" d="M130.2,109.9c1.4,0,2.5-1.1,2.5-2.5V87.1c-0.1-1.4-1.2-2.4-2.5-2.5h-18.9v-12c0-5.8,1.4-8.7,8.8-8.7H131
		c1.4,0,2.5-1.1,2.5-2.5V42.5c0-1.4-1.1-2.5-2.5-2.5h-16.1c-18,0-29.7,12-29.7,30.5v14H69.1c-1.4,0-2.5,1.1-2.5,2.5v20.3
		c0,1.4,1.1,2.5,2.5,2.5h16.1V160h26.1v-50.1H130.2z"/>
</g>
</svg>
