<?xml version="1.0" encoding="utf-8"?>
<!-- Generator: Adobe Illustrator 22.0.1, SVG Export Plug-In . SVG Version: 6.00 Build 0)  -->
<svg version="1.1" id="Ebene_1" xmlns="http://www.w3.org/2000/svg" xmlns:xlink="http://www.w3.org/1999/xlink" x="0px" y="0px"
	 viewBox="0 0 200 200" style="enable-background:new 0 0 200 200;" xml:space="preserve">
<style type="text/css">
	.st0{fill:#0A0A0A;}
	.st1{fill:#ffffff;}
</style>
<path class="st0" d="M100,200C44.8,200,0,155.2,0,100S44.8,0,100,0s100,44.8,100,100C199.9,155.2,155.2,199.9,100,200z M100,7.7
	C49,7.7,7.7,49,7.7,100S49,192.3,100,192.3s92.3-41.3,92.3-92.3l0,0C192.3,49,151,7.7,100,7.7z"/>
<path class="st1" d="M145.8,67.1c5.3-3,9.3-7.7,11.1-13.5c-4.3,3.1-9.8,4.9-15.4,6.2c-4.6-5.1-11-7.9-17.8-8
	c-13.6,0.1-24.5,11-24.6,24.6c-0.1,1.8,0.1,3.7,0.6,5.5C79.4,80.6,61.6,70.8,49.3,56c-2,3.9-3,8.1-3.1,12.3
	c-0.1,8.2,4.1,15.9,11.1,20.3c-3.9-0.1-7.7-1.1-11.1-3.1v0.6c0,11.7,8.6,21.5,19.7,24c-2.2,0.5-4.5,0.7-6.8,0.6
	c-1.8,0-3.7-0.6-4.9-0.6c3.1,9.8,11.7,17.2,22.8,17.2c-8.8,6.9-19.6,10.6-30.8,10.4c-2.5,0-4.3-0.6-6.2-0.6
	c11.2,7.2,24.2,11.1,37.5,11.1c45.5,0,70.1-37.5,70.1-70.1V75c4.3-3.1,8.6-7.4,12.3-11.6C155.5,65.3,150.7,66.5,145.8,67.1z"/>
</svg>
