<?xml version="1.0" encoding="utf-8"?>
<!-- Generator: Adobe Illustrator 22.0.1, SVG Export Plug-In . SVG Version: 6.00 Build 0)  -->
<svg version="1.1" id="Layer_1" xmlns="http://www.w3.org/2000/svg" xmlns:xlink="http://www.w3.org/1999/xlink" x="0px" y="0px"
	 viewBox="0 0 60 60" style="enable-background:new 0 0 60 60;" xml:space="preserve">
<path d="M54.3,6.9c-1.4-1.4-4.3-0.6-9.1,2.6c-4,2.7-8.9,6.8-13.6,11.6c-7,7-12.4,13.9-14.2,18.2c-0.3-0.1-0.6-0.2-0.9-0.3
	c-1.8-0.4-3.8,0.1-5.5,1.3c-2.4,1.7-3,4.1-3.1,4.5c-0.5,1.9-1.4,3.6-2.7,5.1c-0.4,0.5-0.4,1.2,0.1,1.6c1.7,1.5,3.8,2.2,6,2.2
	c2.1,0,4.3-0.7,6.3-2.1c0.9-0.6,1.6-1.4,1.7-1.5c1.6-1.8,2.3-4.1,2-6.2c4.2-1.5,11.5-7,18.8-14.4C44.9,24.8,49,20,51.7,16
	C54.9,11.2,55.8,8.3,54.3,6.9z"/>
</svg>
