<?xml version="1.0" encoding="utf-8"?>
<!-- Generator: Adobe Illustrator 22.0.1, SVG Export Plug-In . SVG Version: 6.00 Build 0)  -->
<svg version="1.1" id="Ebene_2_1_" xmlns="http://www.w3.org/2000/svg" xmlns:xlink="http://www.w3.org/1999/xlink" x="0px" y="0px"
	 viewBox="0 0 100 100" style="enable-background:new 0 0 100 100;" xml:space="preserve">
<style type="text/css">
	.st0{fill:#0A0A0A;}
</style>
<path class="st0" d="M90,56.3V43.5c0-0.6-0.4-1-1-1h-6.5c-0.5,0-1-0.4-1.2-0.9l0,0c-0.1-0.5,0.1-1.1,0.6-1.4l5.4-3.1
	c0.6-0.3,0.8-1.1,0.4-1.6l-6.3-10.9c-0.3-0.6-1.1-0.8-1.6-0.4l-5.4,3.1c-0.4,0.2-1,0.1-1.4-0.3l0,0c-0.4-0.4-0.5-1-0.2-1.5l3.1-5.4
	c0.3-0.6,0.1-1.3-0.4-1.6l-10.9-6.3c-0.6-0.3-1.3-0.1-1.6,0.4L59.9,18c-0.3,0.5-0.8,0.7-1.4,0.6l0,0c-0.5-0.1-0.9-0.6-0.9-1.2v-6.5
	c0-0.6-0.4-1-1-1H43.5c-0.6,0-1,0.4-1,1v6.5c0,0.5-0.4,1-0.9,1.2l0,0c-0.5,0.1-1.1-0.1-1.4-0.6l-3.1-5.4c-0.3-0.6-1.1-0.8-1.6-0.4
	l-10.9,6.3c-0.6,0.3-0.8,1.1-0.4,1.6l3.1,5.4c0.3,0.5,0.2,1.1-0.2,1.5l0,0c-0.4,0.4-1,0.5-1.5,0.2l-5.4-3.1
	c-0.6-0.3-1.3-0.1-1.6,0.4l-6.3,10.9C12,36,12.2,36.7,12.7,37l5.4,3.1c0.5,0.3,0.7,0.8,0.6,1.4l0,0c-0.1,0.5-0.6,0.9-1.2,0.9H11
	c-0.6,0-1,0.4-1,1v13c0,0.6,0.4,1,1,1h6.5c0.5,0,1,0.4,1.2,0.9l0,0c0.1,0.5-0.1,1.1-0.6,1.4l-5.4,3.1c-0.6,0.3-0.8,1.1-0.4,1.6
	l6.3,10.9c0.3,0.6,1.1,0.8,1.6,0.4l5.4-3.1c0.5-0.3,1.1-0.2,1.5,0.2l0,0c0.4,0.4,0.5,1,0.2,1.5l-3.1,5.4c-0.3,0.6-0.1,1.3,0.4,1.6
	l10.9,6.3c0.6,0.3,1.3,0.1,1.6-0.4l3.1-5.4c0.3-0.5,0.8-0.7,1.4-0.6l0,0c0.5,0.1,0.9,0.6,0.9,1.2v6.5c0,0.6,0.4,1,1,1h13
	c0.6,0,1-0.4,1-1v-6.5c0-0.5,0.4-1,0.9-1.2l0,0c0.5-0.1,1.1,0.1,1.4,0.6l3.1,5.4c0.3,0.6,1.1,0.8,1.6,0.4l10.9-6.3
	c0.6-0.3,0.8-1.1,0.4-1.6l-3.1-5.4C72.5,74,72.6,73.4,73,73l0,0c0.4-0.4,1-0.5,1.5-0.2l5.4,3.1c0.6,0.3,1.3,0.1,1.6-0.4l6.3-10.9
	c0.3-0.6,0.1-1.3-0.4-1.6L82,59.9c-0.5-0.3-0.7-0.8-0.6-1.4l0,0c0.1-0.5,0.6-0.9,1.2-0.9h6.3C89.5,57.5,90,57,90,56.3z M51.6,62.4
	c-8.2,1-15.1-5.8-14-14c0.7-5.6,5.2-10.1,10.8-10.8c8.2-1,15.1,5.8,14,14C61.7,57.2,57.2,61.7,51.6,62.4z"/>
</svg>
